<?xml version="1.0" standalone="no"?>
<!DOCTYPE svg PUBLIC "-//W3C//DTD SVG 20010904//EN"
 "http://www.w3.org/TR/2001/REC-SVG-20010904/DTD/svg10.dtd">
<svg version="1.0" xmlns="http://www.w3.org/2000/svg"
 width="240.000000pt" height="240.000000pt" viewBox="0 0 240.000000 240.000000"
 preserveAspectRatio="xMidYMid meet">
<metadata>
Created by potrace 1.14, written by Peter Selinger 2001-2017
</metadata>
<g transform="translate(0.000000,240.000000) scale(0.100000,-0.100000)"
fill="#000000" stroke="none">
<path d="M1203 1801 c-656 -328 -1193 -598 -1193 -601 0 -4 211 -57 265 -66 5
-1 102 -25 214 -53 112 -28 212 -51 223 -51 11 0 67 33 124 73 57 39 227 158
379 262 151 105 332 229 400 278 121 84 151 102 123 74 -7 -8 -80 -85 -163
-172 -82 -88 -193 -204 -246 -259 -52 -56 -132 -139 -176 -186 -44 -47 -99
-104 -122 -128 -22 -24 -41 -45 -41 -47 0 -2 100 -92 223 -202 198 -177 275
-246 311 -278 78 -72 276 -245 277 -243 0 2 2 10 4 18 2 8 35 130 74 270 39
140 73 264 76 275 8 36 23 89 38 138 8 26 13 47 11 47 -2 0 1 12 6 26 6 14 19
58 29 97 10 40 49 182 86 316 36 134 68 251 70 260 3 9 27 99 55 201 28 102
60 217 70 255 10 39 32 119 49 180 16 60 29 110 28 111 -1 1 -539 -267 -1194
-595z"/>
<path d="M900 372 c0 -199 2 -362 4 -362 6 0 306 409 312 424 5 12 -24 41
-166 166 -41 36 -81 72 -90 80 -9 8 -26 24 -38 34 l-22 19 0 -361z"/>
</g>
</svg>
